<svg width="21" height="12" viewBox="0 0 21 12" fill="none" xmlns="http://www.w3.org/2000/svg">
<path d="M10.0345 0.0390625C6.2001 0.0390625 2.72287 2.12968 0.15703 5.52541C-0.0523432 5.80361 -0.0523432 6.19228 0.15703 6.47048C2.72287 9.8703 6.2001 11.9609 10.0345 11.9609C13.8689 11.9609 17.3461 9.8703 19.912 6.47457C20.1213 6.19637 20.1213 5.8077 19.912 5.5295C17.3461 2.12968 13.8689 0.0390625 10.0345 0.0390625ZM10.3096 10.1976C7.76424 10.3572 5.6623 8.26653 5.82241 5.72588C5.95378 3.63117 7.6575 1.9333 9.75944 1.80238C12.3048 1.64283 14.4067 3.73345 14.2466 6.2741C14.1111 8.36472 12.4074 10.0626 10.3096 10.1976ZM10.1823 8.25835C8.8111 8.34427 7.67803 7.21918 7.76834 5.85271C7.83813 4.72353 8.75773 3.81118 9.89081 3.73754C11.262 3.65162 12.3951 4.77671 12.3048 6.14318C12.2309 7.27646 11.3113 8.1888 10.1823 8.25835Z" fill="white"/>
</svg>
