<svg width="40" height="40" viewBox="0 0 40 40" fill="none" xmlns="http://www.w3.org/2000/svg">
<g clip-path="url(#clip0)">
<path d="M34.2029 14.7183L25.1339 13.5818C25.8959 11.7648 26.779 8.88123 26.779 5.2771C26.779 3.25653 26.1292 1.76697 24.8477 0.85022C23.9867 0.234375 22.8798 -0.078125 21.5582 -0.078125H21.4928L21.428 -0.0708008C19.2567 0.170898 18.6029 2.19635 18.6907 3.51593C18.7017 3.8559 18.6656 4.18915 18.5837 4.50623C18.3415 5.44128 17.9409 6.2207 16.9732 8.10394L16.9279 8.19153C16.2815 9.45129 15.5388 9.90387 14.5111 10.5304C13.6356 11.0641 12.6434 11.6687 11.5729 12.8375C11.0886 13.3652 10.5308 14.1367 10.0355 14.964C9.94558 15.0836 9.86944 15.2188 9.80523 15.3708C9.79728 15.3864 9.78872 15.4004 9.78046 15.4144C9.75692 15.4556 9.72542 15.5103 9.69209 15.5762C9.64256 15.6674 9.58752 15.7694 9.53095 15.8774C8.6014 16.6827 7.16457 16.6675 6.29129 16.6577C6.20139 16.6568 6.11853 16.6559 6.04361 16.6559C4.51261 16.6559 3.60691 17.2553 3.11706 17.7582C2.43518 18.4573 2.07498 19.4458 2.07498 20.6165L2.07437 33.3673C2.07437 34.2072 2.18139 35.4199 3.10758 36.2564C3.9723 37.0377 5.19754 37.128 6.04361 37.128H8.83807C9.52392 37.128 10.185 37.4219 11.0225 37.7942C11.4955 38.0045 12.0319 38.2428 12.6456 38.458C15.5262 39.454 19.36 39.9179 24.7101 39.9179C25.747 39.9179 28.9631 39.9219 28.9647 39.9219C30.1245 39.9219 31.2161 39.4675 32.1209 38.6081C32.6003 38.1534 32.8917 37.5815 33.0113 36.8601C33.0376 36.7004 33.055 36.3641 33.0568 36.1819C33.0752 35.7248 33.0079 35.2899 32.8636 34.8904C33.7928 34.7858 34.6695 34.3854 35.3397 33.7463C36.1619 32.962 36.6148 31.8726 36.6148 30.6781C36.6148 29.8026 36.3368 28.9755 35.8222 28.2962C36.1262 28.1467 36.4142 27.9532 36.6711 27.7039C37.337 27.0575 37.6813 26.1615 37.6954 25.0403C37.7382 23.9218 37.348 22.9492 36.6142 22.2305C37.3905 21.4575 37.9006 20.3503 37.9535 19.1226C38.0535 16.8073 36.3754 14.8434 34.2029 14.7183Z" fill="white"/>
</g>
<defs>
<clipPath id="clip0">
<rect width="40" height="40" fill="white"/>
</clipPath>
</defs>
</svg>
