<svg width="177" height="31" viewBox="0 0 177 31" fill="none" xmlns="http://www.w3.org/2000/svg">
<path d="M102.656 23.75H93.9844V2.1875C93.9844 1.64062 93.5156 1.25 93.0469 1.25H89.4531C88.9062 1.25 88.5156 1.71875 88.5156 2.1875V27.8906C88.5156 28.3594 88.9062 28.8281 89.4531 28.8281H101.094C101.484 28.8281 101.641 28.6719 102.031 27.9688L103.594 24.7656C103.828 24.1406 103.047 23.75 102.656 23.75Z" fill="black"/>
<path d="M82.8125 21.5625C82.5 21.25 81.9531 21.1719 81.5625 21.5625C80 22.8906 78.0469 23.75 75.7813 23.75C70.9375 23.75 67.3438 19.7656 67.3438 15C67.3438 10.1562 70.9375 6.09375 75.7813 6.09375C77.8906 6.09375 80 6.95312 81.5625 8.35937C81.7188 8.51562 81.875 8.59375 82.1094 8.67187C82.5 8.67187 82.6563 8.51562 83.0469 7.8125L84.6094 4.60937C84.7656 4.21875 84.5313 3.90625 84.2188 3.75C81.7969 1.875 79.1406 0.859375 75.625 0.859375C67.7344 0.859375 61.4062 7.1875 61.4062 15.0781C61.4062 22.9687 67.7344 29.2188 75.625 29.2188C79.1406 29.2188 82.5 27.9687 85.1563 25.3906C85.4688 25.0781 85.625 24.4531 85.2344 24.0625L82.8125 21.5625Z" fill="black"/>
<path d="M114.766 19.0625L118.281 11.1719L121.875 19.0625H114.766ZM131.328 27.5L119.375 1.40625C119.219 1.09375 118.984 0.859375 118.516 0.859375H118.125C117.656 0.859375 117.422 1.09375 117.266 1.40625L105.234 27.5C104.922 28.125 105.313 28.8281 106.094 28.8281H109.453C110.156 28.8281 110.625 28.3594 110.781 27.8906L112.5 24.1406H123.984L125.703 27.9687C126.016 28.5937 126.328 28.9062 127.031 28.9062H130.391C131.25 28.8281 131.641 28.125 131.328 27.5Z" fill="black"/>
<path d="M153.75 14.4531H150.078C149.531 14.4531 149.141 14.9219 149.141 15.3906V19.1406V22.8125C148.359 23.125 146.719 23.6719 144.766 23.6719C140 23.6719 136.25 19.6875 136.25 15C136.25 10.2344 140 6.25 144.687 6.25C146.797 6.25 148.75 7.03125 150.391 8.4375C150.625 8.59375 150.781 8.75 151.016 8.67187C151.406 8.67187 151.562 8.51562 151.953 7.8125L153.516 4.60937C153.594 4.375 153.516 4.14062 153.359 3.90625L153.125 3.75C150.625 1.95313 147.578 0.859375 144.453 0.859375C136.641 0.859375 130.312 7.1875 130.312 15.0781C130.312 22.9687 136.641 29.2188 144.453 29.2188C150.156 29.2188 154.141 26.6406 154.141 26.6406C154.297 26.4844 154.531 26.25 154.531 25.8594V15.3906C154.687 14.8437 154.297 14.4531 153.75 14.4531Z" fill="black"/>
<path d="M175.078 6.32813C175.625 6.32813 176.016 5.85938 176.016 5.39062V2.1875C176.016 1.71875 175.625 1.25 175.078 1.25H159.375C158.828 1.25 158.438 1.71875 158.438 2.1875V27.8906C158.438 28.3594 158.828 28.8281 159.375 28.8281H175.156C175.703 28.8281 176.094 28.3594 176.094 27.8906V24.6875C176.094 24.2188 175.703 23.75 175.156 23.75H163.906V17.4219H173.281C173.75 17.4219 174.219 17.0312 174.219 16.4844V13.2812C174.219 12.7344 173.75 12.3438 173.281 12.3438H163.906V6.32813H175.078Z" fill="black"/>
<path d="M24.6094 0.234375L1.48437 10.3906C0.703125 10.7031 0 11.7188 0 12.6562V17.4219C0 18.2031 0.46875 19.0625 1.17187 19.5312L11.3281 15.0781C11.3281 15.0781 12.0312 14.7656 12.8125 14.4531L24.5312 9.29687C24.9219 9.14062 25.4687 9.0625 26.0156 9.0625V8.59375V0C25.5469 0 25 0.078125 24.6094 0.234375Z" fill="#009B40"/>
<path d="M52.1094 17.4219V12.6562C52.1094 11.7969 51.4062 10.7812 50.625 10.3906L27.5781 0.234375C27.1094 0.078125 26.5625 0 26.0938 0V8.59375V8.98437C26.6406 8.98437 27.1875 9.0625 27.5781 9.21875L39.2969 14.375C40.0781 14.7656 40.7812 15 40.7812 15L50.9375 19.4531C51.6406 18.9844 52.1094 18.125 52.1094 17.4219Z" fill="#007935"/>
<path d="M40.7813 15C40.7813 15 40.0781 15.3125 39.2969 15.625L31.0937 19.2187L27.5 20.7812C27.1094 21.0156 26.5625 21.0937 26.0938 21.0937V30.0781C26.6406 30.0781 27.1875 30 27.3437 29.9219L40.5469 24.1406L50.625 19.7656C50.7031 19.6875 50.8594 19.6875 50.9375 19.6094L40.7813 15Z" fill="#009B40"/>
<path d="M24.6094 20.7813L21.6406 19.5313L15 16.6406L7.5 19.9219C6.71875 20.3125 6.01563 20.5469 6.01563 20.5469L4.84375 21.0938L11.3281 23.9844L24.5313 29.7656C24.9219 29.9219 25.4688 30 26.0156 30V21.0938C25.5469 21.0938 25 21.0156 24.6094 20.7813Z" fill="#007935"/>
</svg>
