<svg width="48" height="48" viewBox="0 0 48 48" fill="none" xmlns="http://www.w3.org/2000/svg">
<circle cx="24" cy="24" r="24" fill="#597DA3"/>
<path d="M36.8881 30.1163C36.8881 30.0108 36.7836 30.0109 36.7836 29.9054C36.3656 29.0618 35.4251 28.0072 34.1711 26.8472C33.5441 26.32 33.2306 25.8982 33.0216 25.6873C32.7082 25.2654 32.7082 24.9491 32.8127 24.5273C32.9172 24.2109 33.3351 23.6836 34.0666 22.7345C34.4846 22.2073 34.6936 21.8909 35.0071 21.5746C36.5746 19.4655 37.3061 18.0946 37.0971 17.4619L36.9926 17.3564C36.8881 17.251 36.7836 17.1455 36.5746 17.1455C36.3656 17.0401 36.0521 17.0401 35.7386 17.1455H31.7677C31.6632 17.1455 31.6632 17.1455 31.4542 17.1455C31.3497 17.1455 31.2452 17.1455 31.2452 17.1455H31.1407H31.0362L30.9317 17.251C30.8272 17.3564 30.8272 17.3564 30.8272 17.4619C30.4092 18.6219 29.8867 19.5709 29.3642 20.6255C29.0507 21.1527 28.7372 21.68 28.4237 22.1018C28.1102 22.5236 27.9012 22.84 27.6922 23.0509C27.4832 23.2618 27.2742 23.3673 27.1697 23.5782C27.0652 23.6836 26.8562 23.7891 26.8562 23.6836C26.7517 23.6836 26.6472 23.6836 26.6472 23.5782C26.5427 23.4727 26.4382 23.3673 26.3337 23.2618C26.2292 23.1564 26.2292 22.9455 26.1247 22.7345C26.1247 22.5236 26.1247 22.3127 26.1247 22.2073C26.1247 22.1018 26.1247 21.7855 26.1247 21.5746C26.1247 21.2582 26.1247 21.0473 26.1247 20.9418C26.1247 20.6255 26.1247 20.2037 26.1247 19.7819C26.1247 19.36 26.1247 19.0437 26.1247 18.8328C26.1247 18.6219 26.1247 18.3055 26.1247 18.0946C26.1247 17.7782 26.1247 17.5673 26.1247 17.4619C26.1247 17.3564 26.0203 17.1455 26.0203 17.0401C25.9158 16.9346 25.8112 16.8291 25.7067 16.7237C25.6022 16.6182 25.3932 16.6182 25.2887 16.5128C24.7663 16.4073 24.1393 16.3019 23.4078 16.3019C21.7358 16.3019 20.5863 16.4073 20.1683 16.6182C19.9593 16.7237 19.7503 16.8291 19.6458 17.0401C19.4368 17.251 19.4368 17.3564 19.5413 17.3564C20.0638 17.4619 20.4818 17.6728 20.6908 17.9891L20.7953 18.2C20.8998 18.3055 20.8998 18.5164 21.0043 18.8328C21.1088 19.1491 21.1088 19.4655 21.1088 19.8873C21.1088 20.52 21.1088 21.1527 21.1088 21.5746C21.1088 22.1018 21.0043 22.4182 21.0043 22.7345C21.0043 23.0509 20.8998 23.2618 20.7953 23.3673C20.6908 23.5782 20.6908 23.6836 20.5863 23.6836C20.5863 23.6836 20.5863 23.7891 20.4818 23.7891C20.3773 23.7891 20.2728 23.8945 20.0638 23.8945C19.9593 23.8945 19.7503 23.7891 19.6458 23.6836C19.4368 23.5782 19.2278 23.3673 19.1233 23.1564C18.9143 22.9455 18.7053 22.6291 18.4963 22.2073C18.2873 21.7855 17.9738 21.3637 17.7648 20.7309L17.5558 20.3091C17.4513 20.0982 17.2424 19.6764 17.0334 19.1491C16.8244 18.6219 16.6154 18.2 16.4064 17.6728C16.3019 17.4619 16.1974 17.3564 16.0929 17.251H15.9884C15.9884 17.251 15.8839 17.1455 15.7794 17.1455C15.6749 17.1455 15.5704 17.0401 15.4659 17.0401H11.7039C11.2859 17.0401 11.0769 17.1455 10.9724 17.251L10.8679 17.3564C10.8679 17.3564 10.8679 17.4619 10.8679 17.5673C10.8679 17.6728 10.8679 17.7782 10.9724 17.9891C11.4949 19.2546 12.1219 20.52 12.7489 21.7855C13.3759 22.9455 14.0029 24 14.4209 24.7382C14.9434 25.4763 15.3614 26.2145 15.8839 26.8472C16.4064 27.48 16.7198 27.9018 16.8243 28.1127C17.0333 28.3236 17.1378 28.429 17.2423 28.5345L17.5558 28.8509C17.7648 29.0618 18.0783 29.3781 18.4963 29.6945C18.9143 30.0109 19.4368 30.3272 19.9593 30.6436C20.4818 30.9599 21.1088 31.1709 21.7358 31.3818C22.4673 31.5927 23.0943 31.6981 23.7213 31.5927H25.2887C25.6022 31.5927 25.8113 31.4872 26.0203 31.2763L26.1247 31.1708C26.1247 31.0654 26.2292 31.0654 26.2292 30.9599C26.2292 30.8545 26.2292 30.749 26.2292 30.5381C26.2292 30.1163 26.2292 29.7999 26.3337 29.4836C26.4382 29.1672 26.4382 28.9563 26.5427 28.7454C26.6472 28.5345 26.7517 28.429 26.8562 28.3236C26.9607 28.2181 27.0652 28.1127 27.0652 28.1127H27.1697C27.3787 28.0072 27.6922 28.1127 27.9012 28.3236C28.2147 28.5345 28.5282 28.8509 28.7372 29.1672C28.9462 29.4836 29.2597 29.7999 29.6777 30.2218C30.0957 30.6436 30.4092 30.9599 30.6182 31.0654L30.9317 31.2763C31.1407 31.3818 31.3497 31.4872 31.6632 31.5927C31.9767 31.6981 32.1857 31.6981 32.3946 31.6981L35.9476 31.5927C36.2611 31.5927 36.5746 31.4872 36.7836 31.3818C36.9926 31.2763 37.0971 31.1708 37.0971 30.9599C37.0971 30.8545 37.0971 30.6436 37.0971 30.5381C36.8881 30.3272 36.8881 30.2218 36.8881 30.1163Z" fill="white"/>
</svg>
