<svg width="555" height="321" viewBox="0 0 555 321" fill="none" xmlns="http://www.w3.org/2000/svg">
<g opacity="0.25">
<path d="M262.106 3.08072L15.8096 111.252C7.48876 114.58 0 125.397 0 135.382V186.139C0 194.46 4.9925 203.613 12.4813 208.605L120.652 161.177C120.652 161.177 128.141 157.848 136.462 154.52L261.274 99.6025C265.435 97.9383 271.259 97.1062 277.084 97.1062V92.1137V0.584473C272.091 0.584473 266.267 1.41656 262.106 3.08072Z" fill="#009B40"/>
<path d="M555 186.139V135.382C555 126.229 547.511 115.412 539.19 111.252L293.726 3.08072C288.733 1.41656 282.909 0.584473 277.916 0.584473V92.1137V96.2741C283.741 96.2741 289.565 97.1062 293.726 98.7704L418.538 153.688C426.859 157.848 434.348 160.345 434.348 160.345L542.519 207.773C550.007 202.781 555 193.628 555 186.139Z" fill="#007935"/>
<path d="M434.348 160.345C434.348 160.345 426.859 163.673 418.538 167.001L331.169 205.277L292.894 221.919C288.733 224.415 282.909 225.247 277.916 225.247V320.937C283.741 320.937 289.565 320.105 291.229 319.273L431.852 257.698L539.19 211.102C540.023 210.27 541.687 210.27 542.519 209.438L434.348 160.345Z" fill="#009B40"/>
<path d="M262.106 221.919L230.487 208.605L159.76 177.818L79.88 212.766C71.5591 216.926 64.0704 219.423 64.0704 219.423L51.5891 225.247L120.652 256.034L261.274 317.608C265.435 319.273 271.259 320.105 277.084 320.105V225.247C272.091 225.247 266.267 224.415 262.106 221.919Z" fill="#007935"/>
</g>
</svg>
