<?xml version="1.0" encoding="utf-8"?><svg xmlns="http://www.w3.org/2000/svg" xmlns:xlink="http://www.w3.org/1999/xlink"><symbol viewBox="0 0 24 18" id="mail" xmlns="http://www.w3.org/2000/svg"><path d="M23.982 2.159l-6.473 6.447 6.47 6.444c.035-.447.02-12.68.003-12.891zM21.65 0H2.35A2.35 2.35 0 00.723.652l10.723 10.681a.784.784 0 001.107.001L23.273.655A2.33 2.33 0 0021.65 0zM.019 2.16c-.018.216-.033 12.446.003 12.893l6.482-6.434-6.485-6.46z"/><path d="M16.4 9.71l-2.742 2.732a2.346 2.346 0 01-3.317-.001L7.612 9.723.73 16.556c.421.405.991.657 1.621.657h19.3c.63 0 1.2-.252 1.623-.658L16.4 9.711z"/></symbol><symbol viewBox="0 0 25 24" id="tell" xmlns="http://www.w3.org/2000/svg"><path d="M23.372 18.515l-4.858-3.24a1.418 1.418 0 00-1.899.309l-1.415 1.82a.605.605 0 01-.775.163l-.27-.149c-.892-.486-2.002-1.092-4.24-3.33-2.236-2.237-2.843-3.349-3.33-4.24l-.147-.269a.606.606 0 01.16-.778l1.818-1.415a1.419 1.419 0 00.309-1.898L5.485.63A1.41 1.41 0 003.584.202l-2.032 1.22A2.866 2.866 0 00.246 3.118C-.486 5.783.064 10.383 6.84 17.16 12.23 22.55 16.244 24 19.002 24a7.082 7.082 0 001.88-.246 2.864 2.864 0 001.696-1.306l1.221-2.03a1.41 1.41 0 00-.427-1.903zM13.6 4.001a6.807 6.807 0 016.8 6.8.4.4 0 10.8 0 7.608 7.608 0 00-7.6-7.6.4.4 0 100 .8z"/><path d="M13.6 6.401a4.405 4.405 0 014.4 4.4.4.4 0 10.8 0 5.206 5.206 0 00-5.2-5.2.4.4 0 100 .8z"/><path d="M13.6 8.801a2.002 2.002 0 012 2 .4.4 0 00.8 0 2.803 2.803 0 00-2.8-2.8.4.4 0 100 .8z"/></symbol></svg>