<svg width="24" height="18" viewBox="0 0 24 18" fill="none" xmlns="http://www.w3.org/2000/svg">
<path d="M23.9817 2.15881L17.5087 8.60649L23.9786 15.0495C24.014 14.6028 23.9986 2.36942 23.9817 2.15881Z" fill="#20A272"/>
<path d="M21.6499 6.66228e-09H2.35012C1.72232 -4.68686e-05 1.14463 0.247267 0.722656 0.651613C5.12095 5.03267 7.42159 7.32422 11.4463 11.3332C11.7516 11.6385 12.2473 11.6388 12.5527 11.3344C16.6029 7.30003 19.2574 4.65589 23.2737 0.655363C22.849 0.245252 22.2744 6.66228e-09 21.6499 6.66228e-09Z" fill="#20A272"/>
<path d="M0.0189857 2.15955C0.00145435 2.37555 -0.0142957 14.6064 0.0217982 15.053L6.50379 8.6189L0.0189857 2.15955Z" fill="#20A272"/>
<path d="M16.3998 9.71094L13.658 12.4418C12.7446 13.3553 11.2594 13.3592 10.3409 12.4408L7.61232 9.72294L0.728516 16.556C1.15049 16.961 1.7203 17.2133 2.35012 17.2133H21.6499C22.2802 17.2133 22.8506 16.9607 23.2726 16.555L16.3998 9.71094Z" fill="#20A272"/>
</svg>
