<svg width="25" height="24" viewBox="0 0 25 24" fill="none" xmlns="http://www.w3.org/2000/svg">
<path d="M23.3719 18.5152L18.5139 15.2754C17.8974 14.8676 17.071 15.0018 16.6152 15.5838L15.2001 17.4033C15.0182 17.643 14.6876 17.7126 14.4246 17.5665L14.1554 17.4181C13.263 16.9317 12.1528 16.3261 9.91572 14.0883C7.67869 11.8505 7.07194 10.7394 6.58556 9.84866L6.43796 9.57948C6.2898 9.31644 6.35804 8.98445 6.59793 8.80114L8.41616 7.38646C8.99793 6.93064 9.13231 6.10448 8.72495 5.4878L5.4852 0.629767C5.06772 0.00178388 4.23013 -0.186733 3.58382 0.201784L1.55237 1.42208C0.914071 1.79733 0.445779 2.40507 0.245685 3.11793C-0.485837 5.78332 0.0644798 10.3834 6.84077 17.1605C12.2312 22.5504 16.2441 23.9999 19.0023 23.9999C19.637 24.0027 20.2693 23.9201 20.8821 23.7544C21.5951 23.5545 22.203 23.0862 22.578 22.4477L23.7995 20.4175C24.1886 19.771 24.0002 18.9329 23.3719 18.5152Z" fill="#20A272"/>
<path d="M13.6009 4.00145C17.3544 4.00562 20.3962 7.04743 20.4004 10.8009C20.4004 11.0218 20.5794 11.2009 20.8003 11.2009C21.0212 11.2009 21.2003 11.0218 21.2003 10.8009C21.1957 6.60581 17.796 3.20613 13.6009 3.20154C13.38 3.20154 13.2009 3.38059 13.2009 3.60149C13.2009 3.8224 13.38 4.00145 13.6009 4.00145Z" fill="#20A272"/>
<path d="M13.6009 6.40135C16.0296 6.40421 17.9977 8.37234 18.0006 10.801C18.0006 11.0219 18.1797 11.201 18.4005 11.201C18.6214 11.201 18.8005 11.0219 18.8005 10.801C18.7972 7.93071 16.4712 5.60472 13.6009 5.60144C13.38 5.60144 13.2009 5.78049 13.2009 6.00139C13.2009 6.2223 13.38 6.40135 13.6009 6.40135Z" fill="#20A272"/>
<path d="M13.6009 8.80113C14.7048 8.80244 15.5994 9.69703 15.6008 10.801C15.6008 11.0219 15.7799 11.2009 16.0007 11.2009C16.2216 11.2009 16.4007 11.0219 16.4007 10.801C16.3989 9.25545 15.1464 8.00295 13.6009 8.00122C13.38 8.00122 13.2009 8.18027 13.2009 8.40117C13.2009 8.62208 13.38 8.80113 13.6009 8.80113Z" fill="#20A272"/>
</svg>
